<svg xmlns="http://www.w3.org/2000/svg" width="1200" height="800" viewBox="0 0 1200 800">
  <defs>
    <linearGradient id="bg" x1="0%" y1="0%" x2="100%" y2="100%">
      <stop offset="0%" style="stop-color:#1a1a2e"/>
      <stop offset="100%" style="stop-color:#16213e"/>
    </linearGradient>
    <linearGradient id="card" x1="0%" y1="0%" x2="0%" y2="100%">
      <stop offset="0%" style="stop-color:#2a2a4a"/>
      <stop offset="100%" style="stop-color:#1f1f3a"/>
    </linearGradient>
  </defs>
  <rect width="1200" height="800" fill="url(#bg)"/>
  <rect x="60" y="80" width="340" height="200" rx="16" fill="url(#card)" stroke="#ffffff10"/>
  <rect x="80" y="100" width="120" height="12" rx="6" fill="#ffffff30"/>
  <rect x="80" y="130" width="200" height="40" rx="8" fill="#f97316" opacity="0.8"/>
  <text x="110" y="156" font-family="sans-serif" font-size="18" font-weight="bold" fill="white">1,250 Vehicules</text>
  <rect x="80" y="190" width="280" height="8" rx="4" fill="#ffffff10"/>
  <rect x="80" y="190" width="180" height="8" rx="4" fill="#f97316" opacity="0.6"/>
  <rect x="80" y="210" width="280" height="8" rx="4" fill="#ffffff10"/>
  <rect x="80" y="210" width="220" height="8" rx="4" fill="#f97316" opacity="0.4"/>
  <rect x="430" y="80" width="340" height="200" rx="16" fill="url(#card)" stroke="#ffffff10"/>
  <rect x="450" y="100" width="100" height="12" rx="6" fill="#ffffff30"/>
  <circle cx="600" cy="180" r="60" fill="none" stroke="#f97316" stroke-width="8" stroke-dasharray="280 100" opacity="0.7"/>
  <text x="580" y="188" font-family="sans-serif" font-size="20" font-weight="bold" fill="white">87%</text>
  <rect x="800" y="80" width="340" height="200" rx="16" fill="url(#card)" stroke="#ffffff10"/>
  <rect x="820" y="100" width="140" height="12" rx="6" fill="#ffffff30"/>
  <rect x="820" y="130" width="40" height="120" rx="4" fill="#f97316" opacity="0.3"/>
  <rect x="870" y="160" width="40" height="90" rx="4" fill="#f97316" opacity="0.5"/>
  <rect x="920" y="140" width="40" height="110" rx="4" fill="#f97316" opacity="0.7"/>
  <rect x="970" y="120" width="40" height="130" rx="4" fill="#f97316" opacity="0.9"/>
  <rect x="1020" y="150" width="40" height="100" rx="4" fill="#f97316" opacity="0.6"/>
  <rect x="1070" y="130" width="40" height="120" rx="4" fill="#f97316" opacity="0.8"/>
  <rect x="60" y="320" width="260" height="180" rx="16" fill="url(#card)" stroke="#ffffff10"/>
  <ellipse cx="190" cy="400" rx="80" ry="35" fill="#f9731620"/>
  <rect x="140" y="375" width="100" height="40" rx="12" fill="#f9731640"/>
  <rect x="155" y="365" width="70" height="25" rx="8" fill="#f9731660"/>
  <circle cx="160" cy="420" r="12" fill="#ffffff20" stroke="#ffffff30" stroke-width="2"/>
  <circle cx="220" cy="420" r="12" fill="#ffffff20" stroke="#ffffff30" stroke-width="2"/>
  <rect x="350" y="320" width="260" height="180" rx="16" fill="url(#card)" stroke="#ffffff10"/>
  <ellipse cx="480" cy="400" rx="80" ry="35" fill="#f9731620"/>
  <rect x="430" y="375" width="100" height="40" rx="12" fill="#f9731640"/>
  <rect x="445" y="365" width="70" height="25" rx="8" fill="#f9731660"/>
  <circle cx="450" cy="420" r="12" fill="#ffffff20" stroke="#ffffff30" stroke-width="2"/>
  <circle cx="510" cy="420" r="12" fill="#ffffff20" stroke="#ffffff30" stroke-width="2"/>
  <rect x="640" y="320" width="260" height="180" rx="16" fill="url(#card)" stroke="#ffffff10"/>
  <ellipse cx="770" cy="400" rx="80" ry="35" fill="#f9731620"/>
  <rect x="720" y="370" width="100" height="45" rx="12" fill="#f9731640"/>
  <rect x="735" y="360" width="70" height="25" rx="8" fill="#f9731660"/>
  <circle cx="740" cy="420" r="12" fill="#ffffff20" stroke="#ffffff30" stroke-width="2"/>
  <circle cx="800" cy="420" r="12" fill="#ffffff20" stroke="#ffffff30" stroke-width="2"/>
  <rect x="60" y="540" width="540" height="200" rx="16" fill="url(#card)" stroke="#ffffff10"/>
  <rect x="80" y="560" width="160" height="12" rx="6" fill="#ffffff30"/>
  <rect x="80" y="610" width="400" height="10" rx="5" fill="#ffffff08"/>
  <rect x="80" y="610" width="320" height="10" rx="5" fill="#f9731630"/>
  <rect x="80" y="640" width="400" height="10" rx="5" fill="#ffffff08"/>
  <rect x="80" y="640" width="260" height="10" rx="5" fill="#f9731625"/>
  <rect x="640" y="540" width="500" height="200" rx="16" fill="url(#card)" stroke="#ffffff10"/>
  <rect x="660" y="560" width="120" height="12" rx="6" fill="#ffffff30"/>
  <rect x="660" y="590" width="460" height="130" rx="8" fill="#ffffff05"/>
  <circle cx="780" cy="650" r="6" fill="#f97316" opacity="0.8"/>
  <circle cx="850" cy="630" r="6" fill="#f97316" opacity="0.6"/>
  <circle cx="920" cy="670" r="6" fill="#f97316" opacity="0.7"/>
  <circle cx="1000" cy="640" r="6" fill="#f97316" opacity="0.5"/>
  <text x="600" y="790" font-family="sans-serif" font-size="14" fill="#ffffff20" text-anchor="middle">AUTOLOCO — Plateforme de Location</text>
</svg>
